<?xml version="1.0" standalone="no"?><!DOCTYPE svg PUBLIC "-//W3C//DTD SVG 1.1//EN" "http://www.w3.org/Graphics/SVG/1.1/DTD/svg11.dtd"><svg t="1753329425584" class="icon" viewBox="0 0 1024 1024" version="1.1" xmlns="http://www.w3.org/2000/svg" p-id="21746" xmlns:xlink="http://www.w3.org/1999/xlink" width="200" height="200"><path d="M144.065078 0h735.846844c79.381767 0 143.743579 64.341811 143.743579 143.721579v735.866844c0 79.379767-64.361811 143.723579-143.743579 143.723579H144.065078c-79.379767 0-143.720579-64.343811-143.720579-143.723579V143.721579C0.344499 64.342811 64.68831 0 144.065078 0zM227.420834 399.551829s-107.791684 38.814886-106.359689 163.84152c0 0-2.883992 139.431592 149.468562 172.477495 0 0 86.235747 48.857857 94.867722 51.735849 0 0 0 73.294785 77.607773 45.993865 0 0 44.558869-40.247882 0-80.489764 0 0-37.359891-23.009933-66.114806 8.605974l-80.465764-43.109873-2.887992-298.933125s56.052836-156.646541 204.093402-155.237545c0 0 136.5226-27.30092 221.326352 146.629571v336.299014s188.280448-5.747983 169.592503-215.587368c0 0-15.809954-74.745781-94.846722-117.852655 0 0-122.164642-311.882086-408.176804-192.599435-0.01 0.005-113.545667 54.62784-158.104537 178.226477z" fill="#a287eb" p-id="21747"></path></svg>