<?xml version="1.0" standalone="no"?><!DOCTYPE svg PUBLIC "-//W3C//DTD SVG 1.1//EN" "http://www.w3.org/Graphics/SVG/1.1/DTD/svg11.dtd"><svg t="1753329451390" class="icon" viewBox="0 0 1024 1024" version="1.1" xmlns="http://www.w3.org/2000/svg" p-id="22853" xmlns:xlink="http://www.w3.org/1999/xlink" width="200" height="200"><path d="M741.6 916.96H180.24a72 72 0 0 1-72-72V444.24l3.28-168a72 72 0 0 1 72-71.52H744.8a72 72 0 0 1 72 72l-3.28 301.44v266.72a72 72 0 0 1-71.92 72.08zM183.52 256.88a19.92 19.92 0 0 0-19.84 19.92l-3.28 168v400a19.84 19.84 0 0 0 19.84 19.92H741.6a19.84 19.84 0 0 0 19.76-19.92V464l3.28-187.44a19.84 19.84 0 0 0-19.84-19.44z" fill="#409EFF" p-id="22854"></path><path d="M854 816.48a26.08 26.08 0 0 1-12-49.2 19.68 19.68 0 0 0 10.64-17.6V368.4l3.2-187.44a19.52 19.52 0 0 0-19.84-19.36H274.72a19.84 19.84 0 0 0-16.48 8.72 26 26 0 1 1-43.12-29.2 72 72 0 0 1 59.6-32h561.28a72 72 0 0 1 72 72l-3.28 301.44v267.12a72 72 0 0 1-38.8 64 26.64 26.64 0 0 1-11.92 2.8z" fill="#409EFF" p-id="22855"></path><path d="M158.56 416.8h603.76v52.08H158.56zM542.4 379.28H251.36a26.08 26.08 0 1 1 0-52.08H542.4a26.08 26.08 0 1 1 0 52.08zM701.44 350.56a40 40 0 1 1-40-40 40 40 0 0 1 40 40M548.56 653.92a26 26 0 0 1-17.2-6.4l-73.68-64.72-71.28 61.84a26.08 26.08 0 0 1-34.4-39.36l88.48-76.72a25.92 25.92 0 0 1 34.24 0L565.68 608a26 26 0 0 1-17.12 45.6z" fill="#409EFF" p-id="22856"></path><path d="M457.52 787.44a26.08 26.08 0 0 1-26-26.08V582.4a26.08 26.08 0 0 1 26.08-26.08 26.08 26.08 0 0 1 26.08 26v178.96a26.08 26.08 0 0 1-26 26.16z" fill="#409EFF" p-id="22857"></path></svg>