<?xml version="1.0" standalone="no"?><!DOCTYPE svg PUBLIC "-//W3C//DTD SVG 1.1//EN" "http://www.w3.org/Graphics/SVG/1.1/DTD/svg11.dtd"><svg t="1753329125745" class="icon" viewBox="0 0 1024 1024" version="1.1" xmlns="http://www.w3.org/2000/svg" p-id="8690" width="200" height="200" xmlns:xlink="http://www.w3.org/1999/xlink"><path d="M921.6 486.4c-19.2 12.8-64 44.8-153.6 96-12.8 6.4-12.8 12.8 0 38.4 6.4 19.2 32 76.8 44.8 102.4 6.4 12.8 6.4 19.2-6.4 25.6-12.8 12.8-44.8-38.4-102.4-102.4-32-32-38.4-12.8-76.8 12.8-38.4 25.6-76.8 57.6-115.2 57.6-44.8 0-89.6-38.4-147.2-76.8C352 640 339.2 633.6 313.6 665.6c-25.6 25.6-57.6 64-70.4 83.2-12.8 12.8-12.8 12.8-19.2 6.4-6.4 0-12.8-12.8-6.4-25.6 12.8-19.2 32-64 44.8-96 6.4-19.2 19.2-38.4 6.4-44.8C185.6 537.6 128 505.6 83.2 480 76.8 473.6 64 480 64 499.2c0 76.8 0 313.6 0 313.6C64 857.6 102.4 896 147.2 896l723.2 0c44.8 0 83.2-38.4 83.2-83.2 0 0 0-243.2 0-320C960 486.4 953.6 467.2 921.6 486.4z" fill="#35c93f" p-id="8691"></path><path d="M844.8 467.2 844.8 300.8c0-70.4-57.6-128-128-128L307.2 172.8c-70.4 0-128 57.6-128 128l0 166.4c0 0 313.6 185.6 332.8 185.6C537.6 652.8 844.8 467.2 844.8 467.2zM364.8 294.4l300.8 0 0 57.6L364.8 352 364.8 294.4zM364.8 409.6l300.8 0 0 57.6L364.8 467.2 364.8 409.6z" fill="#35c93f" p-id="8692"></path></svg>