
<svg width="88" height="88" viewBox="0 0 88 88" fill="none" xmlns="http://www.w3.org/2000/svg">
  <ellipse cx="44" cy="56" rx="30" ry="26" fill="#FFE2A8"/>
  <ellipse cx="44" cy="58" rx="25" ry="18" fill="#FFF6E5"/>
  <ellipse cx="44" cy="54" rx="16" ry="12" fill="#FFBC8B"/>
  <ellipse cx="30" cy="30" rx="11" ry="13" fill="#FFA96C"/>
  <ellipse cx="58" cy="30" rx="11" ry="13" fill="#FFA96C"/>
  <ellipse cx="44" cy="46" rx="26" ry="24" fill="#FFD193" stroke="#E38C1B" stroke-width="2"/>
  <ellipse cx="34" cy="46" rx="3" ry="5" fill="#222"/>
  <ellipse cx="54" cy="46" rx="3" ry="5" fill="#222"/>
  <ellipse cx="44" cy="60" rx="5" ry="3" fill="#F3965C"/>
  <ellipse cx="44" cy="62" rx="2.2" ry="1.1" fill="#fff"/>
  <!-- 耳朵内粉色 -->
  <ellipse cx="27" cy="20" rx="5" ry="7" fill="#FFD6E5"/>
  <ellipse cx="61" cy="20" rx="5" ry="7" fill="#FFD6E5"/>
  <!-- 鼻子 -->
  <ellipse cx="44" cy="52" rx="2" ry="1.4" fill="#F79CA0"/>
  <!-- 鬓毛 -->
  <path d="M19 58 Q8 57 17 53" stroke="#E38C1B" stroke-width="1.5" stroke-linecap="round"/>
  <path d="M69 58 Q80 57 71 53" stroke="#E38C1B" stroke-width="1.5" stroke-linecap="round"/>
  <!-- 嘴巴 -->
  <path d="M44 53 Q45 56 47 55" stroke="#222" stroke-width="1.2" fill="none"/>
  <path d="M44 53 Q43 56 41 55" stroke="#222" stroke-width="1.2" fill="none"/>
</svg>
