<?xml version="1.0" standalone="no"?><!DOCTYPE svg PUBLIC "-//W3C//DTD SVG 1.1//EN" "http://www.w3.org/Graphics/SVG/1.1/DTD/svg11.dtd"><svg t="1753329189299" class="icon" viewBox="0 0 1024 1024" version="1.1" xmlns="http://www.w3.org/2000/svg" p-id="12916" xmlns:xlink="http://www.w3.org/1999/xlink" width="200" height="200"><path d="M507 511m-496.5 0a496.5 496.5 0 1 0 993 0 496.5 496.5 0 1 0-993 0Z" fill="#F51520" p-id="12917"></path><path d="M775.6 579.3C754.4 599 727 610 698.5 610c-38.1-0.2-73.8-19.5-95.6-51.8-21.7 32.4-57.4 51.8-95.5 51.8s-73.9-19.4-95.5-51.8c-4.5 6.7-9.8 12.9-15.5 18.6-24.2 23.9-57.3 35.8-90.7 32.9-24.9-2.5-48.3-13.5-66.6-31.2v133.4c-0.9 63 47.6 114.9 108.6 116.1H667c61-1.2 109.6-53.1 108.6-116.2V579.3zM589.8 333.8h-16.4v49.6H588c9.6 0 17-2.2 22.1-6.7 5-4.5 7.6-10.8 7.6-19-0.1-15.9-9.4-23.9-27.9-23.9z" fill="#FFFFFF" p-id="12918"></path><path d="M817 439.5v-3.8c-0.1-16.3-3.8-32.4-10.6-47l-53.2-114c-18.2-40.3-57.3-66.2-100.3-66.4H361.7c-43 0.2-82.1 26.1-100.3 66.4l-53.1 113.6c-7 15-10.6 31.4-10.6 48-1.4 65.5 45.3 121.5 108.1 129.8 33.4 3 66.4-9 90.7-32.9 5.7-5.6 10.9-11.8 15.5-18.5 21.7 32.4 57.4 51.8 95.5 51.8s73.8-19.3 95.5-51.8c21.8 32.3 57.5 51.6 95.5 51.8 32-0.6 62.5-14.4 84.7-38.2 22.2-23.7 34.4-55.7 33.8-88.8z m-389.2 11.6h-25.2l-47.9-135.9h24.6l33.5 103.1c1.1 3.3 1.9 7.1 2.5 11.5h0.4c0.4-3.6 1.3-7.5 2.7-11.6l34.3-102.9h23.9l-48.8 135.8z m89.9 0h-23.2V315.3h23.2v135.8zM628 389.2c-9 8.4-21.1 12.6-36.4 12.6h-18.1v49.3h-22.4V315.3h41.2c15.6 0 27.7 3.6 36.3 10.9 8.6 7.3 12.9 17.5 12.9 30.7s-4.5 24-13.5 32.3z" fill="#FFFFFF" p-id="12919"></path></svg>